<?xml version="1.0"?>
<svg version="1.1" xmlns="http://www.w3.org/2000/svg" width="400px" height="200px" style="border: dashed 2px #aaa"><path fill="#ebf5f5" d="M50.8935546875,112.216796875q0-0.5126953125,0.3515625-0.65185546875t0.76171875-0.13916015625q0.7177734375,0,1.2158203125,0.64453125t0.94482421875,1.41357421875t0.88623046875,1.41357421875t1.0400390625,0.64453125q0.4541015625,0,0.82763671875-0.22705078125t0.64453125-0.5712890625t0.41748046875-0.7763671875t0.146484375-0.85693359375q0-1.11328125-0.44677734375-2.2998046875t-1.142578125-2.4462890625t-1.47216796875-2.578125t-1.46484375-2.6806640625t-1.142578125-2.77587890625t-0.4541015625-2.84912109375q0-2.1533203125,1.2890625-3.33984375t3.3984375-1.1865234375q0.7177734375,0,1.4501953125,0.205078125t1.34765625,0.615234375t1.00341796875,1.0107421875t0.38818359375,1.40625q0,0.263671875-0.38818359375,0.34423828125t-0.56396484375,0.08056640625q-0.263671875,0-0.5712890625-0.06591796875t-0.3955078125-0.35888671875t-0.2490234375-0.673828125t-0.40283203125-0.71044921875t-0.5712890625-0.5712890625t-0.72509765625-0.24169921875q-0.6591796875,0-1.12060546875,0.27099609375t-0.7470703125,0.72509765625t-0.4248046875,1.01806640625t-0.13916015625,1.16455078125q0,1.40625,0.4833984375,2.83447265625t1.201171875,2.841796875t1.56005859375,2.79052734375t1.56005859375,2.6806640625t1.201171875,2.548828125t0.4833984375,2.3583984375q0,0.99609375-0.46875,1.6845703125t-1.1865234375,1.12060546875t-1.58935546875,0.6298828125t-1.70654296875,0.19775390625q-0.8935546875,0-1.8310546875-0.35888671875t-1.6845703125-0.98876953125t-1.23046875-1.47216796875t-0.4833984375-1.82373046875z M63.471728515625,108.2470703125q0-0.29296875,0.06591796875-0.7763671875t0.15380859375-0.95947265625t0.205078125-0.88623046875t0.2783203125-0.52734375q0.1171875-0.1171875,0.40283203125-0.234375t0.6005859375-0.16845703125t0.5859375,0.0439453125t0.32958984375,0.38818359375q-0.205078125,0.263671875-0.37353515625,0.90087890625t-0.25634765625,1.41357421875q-0.0732421875,0.6591796875-0.0732421875,1.3623046875l0,0.2490234375q0.0146484375,0.8203125,0.146484375,1.5087890625t0.40283203125,1.13525390625t0.75439453125,0.44677734375q1.025390625,0,1.875-0.94482421875t1.5087890625-2.30712890625t1.1572265625-2.89306640625t0.849609375-2.67333984375q0.087890625-0.3369140625,0.41748046875-0.4541015625t0.71044921875-0.08056640625t0.68115234375,0.18310546875t0.35888671875,0.3515625q-0.29296875,2.4609375-0.46142578125,4.921875t-0.16845703125,4.951171875q0,0.4833984375,0.0439453125,0.88623046875t-0.0439453125,0.6884765625t-0.38818359375,0.4541015625t-0.95947265625,0.16845703125q-0.146484375,0-0.37353515625-0.029296875t-0.46875-0.09521484375t-0.41015625-0.19775390625t-0.16845703125-0.3076171875q0-1.083984375,0.08056640625-2.2265625t0.22705078125-2.2119140625q-0.3955078125,0.5712890625-0.87158203125,1.13525390625t-1.04736328125,1.01806640625t-1.23046875,0.72509765625t-1.4208984375,0.27099609375q-1.083984375,0-1.70654296875-0.5126953125t-0.9375-1.28173828125t-0.3955078125-1.67724609375t-0.08056640625-1.7578125z M77.25107421875,114.736328125q0-0.4248046875,0.03662109375-0.8935546875t0.06591796875-0.87890625l0.087890625-2.197265625q0.146484375-2.63671875,0.35888671875-5.185546875t0.35888671875-5.15625q0.087890625-1.435546875,0.1318359375-2.81982421875t0.1318359375-2.81982421875q-0.05859375-0.1171875-0.05859375-0.1611328125q0-0.205078125,0.15380859375-0.322265625t0.35888671875-0.19775390625t0.43212890625-0.10986328125t0.34423828125-0.029296875l0.3369140625,0q0.4541015625,0.05859375,0.6591796875,0.28564453125t0.263671875,0.5419921875t0.029296875,0.673828125t-0.029296875,0.66650390625q0,2.1240234375-0.1025390625,4.32861328125t-0.234375,4.423828125t-0.24169921875,4.4384765625t-0.10986328125,4.38720703125l0,1.025390625q0,0.6884765625-0.38818359375,0.908203125t-1.07666015625,0.2197265625q-0.6005859375,0-1.0546875-0.263671875t-0.4541015625-0.8642578125z M83.969873046875,109.5361328125q0-0.99609375,0.27099609375-1.9189453125t0.81298828125-1.64794921875t1.35498046875-1.1572265625t1.88232421875-0.43212890625q0.6591796875,0,1.45751953125,0.19775390625t1.50146484375,0.5859375t1.171875,0.98876953125t0.46875,1.376953125q0,0.3662109375-0.12451171875,0.556640625t-0.50537109375,0.1904296875l-0.1611328125-0.029296875q0.4248046875,1.142578125,0.732421875,2.34375t0.6005859375,2.40234375q0.1171875,0.234375,0.17578125,0.41748046875t0.05859375,0.35888671875q0,0.234375-0.1318359375,0.38818359375t-0.34423828125,0.22705078125t-0.439453125,0.1025390625t-0.40283203125,0.029296875q-0.6298828125,0-0.94482421875-0.2197265625t-0.4541015625-0.6005859375t-0.16845703125-0.85693359375t-0.1171875-0.95947265625q-0.17578125,0.5712890625-0.46142578125,1.11328125t-0.673828125,0.97412109375t-0.91552734375,0.6884765625t-1.1865234375,0.25634765625q-0.966796875,0-1.6259765625-0.556640625t-1.06201171875-1.36962890625t-0.5859375-1.73583984375t-0.18310546875-1.7138671875z M86.049951171875,109.3310546875q0,0.5419921875,0.0732421875,1.142578125t0.24169921875,1.1865234375t0.43212890625,1.10595703125t0.6591796875,0.91552734375q0.7177734375-0.7763671875,1.06201171875-1.8896484375t0.615234375-2.14599609375t0.615234375-1.7724609375t1.06201171875-0.73974609375q0.4541015625,0,0.76171875,0.1611328125q-0.146484375-0.3662109375-0.4833984375-0.71044921875t-0.75439453125-0.6298828125t-0.8642578125-0.46875t-0.84228515625-0.18310546875q-0.1171875,0-0.27099609375,0.03662109375t-0.24169921875,0.00732421875q-0.6005859375,0.17578125-0.98876953125,0.60791015625t-0.6298828125,1.01806640625t-0.34423828125,1.201171875t-0.1025390625,1.1572265625z M96.665234375,109.1845703125q0-1.34765625,0.31494140625-2.64404296875t0.53466796875-2.58544921875q0.05859375-0.3369140625,0.46142578125-0.41748046875t0.68115234375-0.08056640625q0.4833984375,0,0.7763671875,0.146484375q0.1171875,0.05859375,0.2197265625,0.1318359375t0.1025390625,0.1904296875q0,1.259765625-0.30029296875,2.4609375t-0.30029296875,2.548828125q0,0.4541015625,0.06591796875,0.85693359375t0.12451171875,0.79833984375l0.087890625,0.4248046875q0,0.1171875,0.0146484375,0.205078125t0.0439453125,0.205078125q0,0.263671875-0.37353515625,0.35888671875t-0.65185546875,0.09521484375q-0.4248046875,0-0.78369140625-0.16845703125t-0.56396484375-0.57861328125l-0.205078125-0.4248046875q-0.17578125-0.3369140625-0.17578125-0.75439453125t-0.0732421875-0.76904296875z M97.602734375,100.3662109375l0-0.2783203125q0-0.6884765625,0.34423828125-1.23046875t1.03271484375-0.5419921875q0.087890625,0,0.16845703125,0.0146484375t0.16845703125,0.0146484375q0.17578125,0.029296875,0.46142578125,0.13916015625t0.28564453125,0.34423828125l0,0.029296875q-0.05859375,0.1171875-0.0732421875,0.24169921875t-0.0732421875,0.21240234375l0.029296875-0.029296875q-0.17578125,0.4541015625-0.28564453125,0.732421875t-0.24169921875,0.44677734375t-0.32958984375,0.24169921875t-0.56396484375,0.0732421875q-0.05859375,0-0.205078125-0.0146484375t-0.31494140625-0.05859375t-0.28564453125-0.1171875t-0.1171875-0.2197265625z M103.09838867188,105.86669921875q-0.03662109375-0.49072265625,0.05859375-0.90087890625t0.380859375-0.66650390625t0.91552734375-0.25634765625q0.146484375,0,0.35888671875,0.03662109375t0.41748046875,0.09521484375t0.34423828125,0.17578125t0.13916015625,0.322265625l0,1.6552734375q0.5712890625-0.6591796875,1.2451171875-0.94482421875t1.5380859375-0.28564453125q0.6591796875,0,1.3037109375,0.30029296875t1.2158203125,0.79833984375t0.98876953125,1.0986328125t0.60791015625,1.201171875q0.1171875-0.5419921875,0.263671875-1.32568359375t0.43212890625-1.50146484375t0.75439453125-1.23046875t1.2451171875-0.5126953125q0.8349609375,0,1.40625,0.6005859375t0.93017578125,1.56005859375t0.5419921875,2.14599609375t0.27099609375,2.34375t0.087890625,2.16064453125l0,1.57470703125q0,0.17578125-0.1318359375,0.28564453125t-0.32958984375,0.16845703125t-0.41015625,0.0732421875t-0.32958984375,0.0146484375q-0.4541015625,0-0.82763671875-0.13916015625t-0.37353515625-0.71044921875l0-1.318359375t-0.029296875-1.70654296875t-0.1025390625-1.8310546875t-0.1904296875-1.66259765625t-0.30029296875-1.201171875t-0.44677734375-0.46875q-0.3662109375,0-0.52734375,0.41015625t-0.27099609375,1.0400390625t-0.16845703125,1.3330078125t-0.1611328125,1.3330078125t-0.32958984375,1.03271484375t-0.62255859375,0.40283203125q-0.4248046875,0-0.7470703125-0.40283203125t-0.63720703125-1.00341796875t-0.6298828125-1.2890625t-0.69580078125-1.2890625q-0.380859375-0.615234375-0.8203125-0.99609375q-0.3955078125-0.3662109375-0.8935546875-0.3515625l-0.0732421875,0q-0.6591796875,0.029296875-1.03271484375,0.47607421875t-0.5712890625,1.09130859375t-0.24169921875,1.38427734375t-0.0439453125,1.29638671875q0,0.52734375,0.087890625,1.23046875q0.05859375,0.46875,0.05859375,0.8935546875q0,0.2197265625-0.0146484375,0.4248046875q-0.0439453125,0.615234375-0.32958984375,1.03271484375t-1.06201171875,0.41748046875q-0.29296875,0-0.732421875-0.05859375t-0.5859375-0.3955078125q-0.3369140625-0.6005859375-0.5126953125-1.51611328125t-0.263671875-1.8896484375t-0.1025390625-1.93359375t-0.0146484375-1.64794921875q0-0.4833984375-0.03662109375-0.97412109375z M121.57255859375,109.5361328125q0-0.99609375,0.27099609375-1.9189453125t0.81298828125-1.64794921875t1.35498046875-1.1572265625t1.88232421875-0.43212890625q0.6591796875,0,1.45751953125,0.19775390625t1.50146484375,0.5859375t1.171875,0.98876953125t0.46875,1.376953125q0,0.3662109375-0.12451171875,0.556640625t-0.50537109375,0.1904296875l-0.1611328125-0.029296875q0.4248046875,1.142578125,0.732421875,2.34375t0.6005859375,2.40234375q0.1171875,0.234375,0.17578125,0.41748046875t0.05859375,0.35888671875q0,0.234375-0.1318359375,0.38818359375t-0.34423828125,0.22705078125t-0.439453125,0.1025390625t-0.40283203125,0.029296875q-0.6298828125,0-0.94482421875-0.2197265625t-0.4541015625-0.6005859375t-0.16845703125-0.85693359375t-0.1171875-0.95947265625q-0.17578125,0.5712890625-0.46142578125,1.11328125t-0.673828125,0.97412109375t-0.91552734375,0.6884765625t-1.1865234375,0.25634765625q-0.966796875,0-1.6259765625-0.556640625t-1.06201171875-1.36962890625t-0.5859375-1.73583984375t-0.18310546875-1.7138671875z M123.65263671875,109.3310546875q0,0.5419921875,0.0732421875,1.142578125t0.24169921875,1.1865234375t0.43212890625,1.10595703125t0.6591796875,0.91552734375q0.7177734375-0.7763671875,1.06201171875-1.8896484375t0.615234375-2.14599609375t0.615234375-1.7724609375t1.06201171875-0.73974609375q0.4541015625,0,0.76171875,0.1611328125q-0.146484375-0.3662109375-0.4833984375-0.71044921875t-0.75439453125-0.6298828125t-0.8642578125-0.46875t-0.84228515625-0.18310546875q-0.1171875,0-0.27099609375,0.03662109375t-0.24169921875,0.00732421875q-0.6005859375,0.17578125-0.98876953125,0.60791015625t-0.6298828125,1.01806640625t-0.34423828125,1.201171875t-0.1025390625,1.1572265625z M134.28256835938,109.609375l0-0.4248046875q0-0.52734375,0.029296875-0.99609375q0.029296875-0.6591796875,0.029296875-1.083984375q0-0.234375,0.029296875-0.53466796875t0.146484375-0.47607421875q0.146484375-0.146484375,0.34423828125-0.30029296875t0.43212890625-0.15380859375q0.7470703125,0,1.171875,0.16845703125t0.4541015625,0.69580078125l0.05859375,0.4541015625q0.263671875-0.6298828125,0.703125-1.56005859375t1.01806640625-1.7724609375t1.3037109375-1.435546875t1.53076171875-0.59326171875q0.7470703125,0,1.23046875,0.703125t0.76904296875,1.79443359375t0.40283203125,2.431640625t0.1611328125,2.62939453125t0.05859375,2.35107421875t0.1025390625,1.60400390625q0.05859375,0.4541015625,0.19775390625,0.95947265625t0.13916015625,0.93017578125q0,0.1171875-0.16845703125,0.22705078125t-0.35888671875,0.18310546875t-0.38818359375,0.1171875t-0.28564453125,0.0439453125q-0.5712890625,0-0.81298828125-0.85693359375t-0.30029296875-2.14599609375t-0.05859375-2.79052734375t-0.1025390625-2.79052734375t-0.41748046875-2.14599609375t-1.00341796875-0.88623046875q-0.6298828125,0-1.3037109375,0.81298828125t-1.1572265625,2.16064453125q-0.46875,1.34765625-0.64453125,3.0615234375q-0.05859375,0.5419921875-0.05859375,1.083984375q0,1.1865234375,0.2490234375,2.373046875q0.029296875,0.205078125-0.16845703125,0.3076171875t-0.49072265625,0.1611328125t-0.59326171875,0.0732421875t-0.46142578125,0.0146484375q-0.5712890625,0-0.91552734375-0.40283203125t-0.53466796875-1.03271484375t-0.25634765625-1.41357421875t-0.08056640625-1.54541015625z M153.21333007813,114.6630859375q0-0.087890625,0.05859375-0.62255859375t0.15380859375-1.3037109375t0.21240234375-1.6552734375t0.205078125-1.67724609375t0.15380859375-1.3916015625t0.06591796875-0.8056640625q-0.1171875-0.05859375-0.28564453125-0.16845703125t-0.16845703125-0.25634765625q0-0.205078125,0.19775390625-0.32958984375t0.34423828125-0.18310546875q0.05859375-0.7470703125,0.146484375-2.080078125t0.27099609375-2.87841796875t0.5126953125-3.134765625t0.87158203125-2.8857421875t1.3037109375-2.11669921875t1.875-0.8203125t1.845703125,0.703125t1.19384765625,1.8310546875t0.703125,2.5048828125t0.3662109375,2.7392578125t0.15380859375,2.548828125t0.05859375,1.904296875q0.029296875,0.4541015625,0.2197265625,0.60791015625t0.41748046875,0.21240234375t0.41015625,0.1318359375t0.18310546875,0.3662109375q0,0.3369140625-0.41015625,0.46875t-0.64453125,0.1611328125q0.146484375,1.8310546875,0.40283203125,3.603515625t0.68115234375,3.57421875q0.05859375,0.3369140625,0.1611328125,0.68115234375t0.1025390625,0.66650390625q0,0.234375-0.1611328125,0.38818359375t-0.41748046875,0.24169921875t-0.5126953125,0.1171875t-0.43212890625,0.029296875q-0.6591796875,0-1.11328125-0.2490234375t-0.6005859375-0.9521484375q-0.3955078125-1.8896484375-0.7763671875-3.9697265625q-0.322265625-1.8017578125-0.322265625-3.5009765625q0-0.263671875,0.0146484375-0.52734375q-1.23046875,0-2.4755859375,0.05859375t-2.3876953125,0.439453125q-0.029296875,0.3955078125-0.146484375,1.494140625t-0.263671875,2.3583984375t-0.30029296875,2.40966796875t-0.18310546875,1.63330078125q-0.029296875,0.205078125-0.30029296875,0.38818359375t-0.5859375,0.19775390625t-0.556640625-0.19775390625t-0.24169921875-0.75439453125z M155.95258789063,105.7861328125q1.142578125-0.263671875,2.29248046875-0.3076171875t2.32177734375-0.1025390625q-0.05859375-0.3662109375-0.029296875-0.75439453125t0.029296875-0.78369140625q0-0.8642578125-0.0439453125-2.0068359375t-0.1318359375-2.314453125t-0.22705078125-2.30712890625t-0.31494140625-2.021484375t-0.37353515625-1.41357421875t-0.43212890625-0.52734375q-0.4541015625,0.029296875-0.85693359375,0.78369140625t-0.732421875,1.9189453125t-0.6005859375,2.607421875t-0.4541015625,2.81982421875t-0.30029296875,2.5634765625t-0.146484375,1.845703125z M167.97412109375,105.2734375q0-1.025390625,0.09521484375-2.666015625t0.22705078125-3.3837890625t0.32958984375-3.30322265625t0.43212890625-2.39501953125q0.087890625-0.3662109375,0.41748046875-0.439453125t0.66650390625-0.0732421875q0.4541015625,0,0.78369140625,0.1611328125t0.32958984375,0.703125q0,2.666015625-0.32958984375,5.33935546875t-0.35888671875,5.33935546875q0.4541015625-0.6884765625,1.171875-1.03271484375t1.5234375-0.34423828125q1.11328125,0,1.9189453125,0.4541015625t1.3037109375,1.171875t0.73974609375,1.66259765625t0.24169921875,1.92626953125q0,0.5419921875-0.10986328125,1.35498046875t-0.32958984375,1.7138671875t-0.556640625,1.787109375t-0.79833984375,1.58935546875t-1.06201171875,1.13525390625t-1.318359375,0.43212890625q-0.146484375,0-0.38818359375-0.0439453125t-0.4833984375-0.1318359375t-0.40283203125-0.22705078125t-0.1611328125-0.34423828125q0-0.234375,0.28564453125-0.32958984375t0.46142578125-0.09521484375q0.6591796875-0.29296875,1.171875-1.22314453125t0.85693359375-2.04345703125t0.52001953125-2.20458984375t0.17578125-1.77978515625q0-0.3955078125-0.1171875-1.0546875t-0.35888671875-1.3037109375t-0.6591796875-1.11328125t-0.98876953125-0.46875q-0.6884765625,0-1.0986328125,0.71044921875t-0.64453125,1.6552734375t-0.31494140625,1.9482421875t-0.08056640625,1.57470703125q0,0.3662109375,0.12451171875,0.72509765625t0.28564453125,0.7177734375t0.28564453125,0.732421875t0.12451171875,0.73974609375q0,0.17578125-0.15380859375,0.29296875t-0.35888671875,0.1904296875t-0.43212890625,0.09521484375t-0.34423828125,0.02197265625q-0.8349609375,0-1.1572265625-0.3955078125t-0.556640625-1.11328125q-0.5126953125-1.6259765625-0.71044921875-3.30322265625t-0.19775390625-3.36181640625z M180.46440429688,109.1845703125q0-1.34765625,0.31494140625-2.64404296875t0.53466796875-2.58544921875q0.05859375-0.3369140625,0.46142578125-0.41748046875t0.68115234375-0.08056640625q0.4833984375,0,0.7763671875,0.146484375q0.1171875,0.05859375,0.2197265625,0.1318359375t0.1025390625,0.1904296875q0,1.259765625-0.30029296875,2.4609375t-0.30029296875,2.548828125q0,0.4541015625,0.06591796875,0.85693359375t0.12451171875,0.79833984375l0.087890625,0.4248046875q0,0.1171875,0.0146484375,0.205078125t0.0439453125,0.205078125q0,0.263671875-0.37353515625,0.35888671875t-0.65185546875,0.09521484375q-0.4248046875,0-0.78369140625-0.16845703125t-0.56396484375-0.57861328125l-0.205078125-0.4248046875q-0.17578125-0.3369140625-0.17578125-0.75439453125t-0.0732421875-0.76904296875z M181.40190429688,100.3662109375l0-0.2783203125q0-0.6884765625,0.34423828125-1.23046875t1.03271484375-0.5419921875q0.087890625,0,0.16845703125,0.0146484375t0.16845703125,0.0146484375q0.17578125,0.029296875,0.46142578125,0.13916015625t0.28564453125,0.34423828125l0,0.029296875q-0.05859375,0.1171875-0.0732421875,0.24169921875t-0.0732421875,0.21240234375l0.029296875-0.029296875q-0.17578125,0.4541015625-0.28564453125,0.732421875t-0.24169921875,0.44677734375t-0.32958984375,0.24169921875t-0.56396484375,0.0732421875q-0.05859375,0-0.205078125-0.0146484375t-0.31494140625-0.05859375t-0.28564453125-0.1171875t-0.1171875-0.2197265625z M186.8609375,109.3603515625q0-1.142578125,0.24169921875-2.07275390625t0.76904296875-1.57470703125t1.38427734375-1.00341796875t2.08740234375-0.35888671875q0.6884765625,0,1.40625,0.18310546875t1.23046875,0.68115234375q0-0.29296875,0.05859375-1.20849609375t0.146484375-2.13134765625t0.18310546875-2.548828125t0.16845703125-2.4755859375t0.1318359375-1.9189453125t0.087890625-0.87890625q0.146484375-0.4248046875,0.5419921875-0.50537109375t0.7470703125-0.08056640625q0.9228515625,0,1.13525390625,0.29296875t0.21240234375,1.171875q0,3.2080078125-0.28564453125,6.38671875t-0.28564453125,6.38671875q0,2.0654296875,0.08056640625,4.15283203125t0.57861328125,4.10888671875l0.1611328125,0.146484375l0.087890625,0.263671875l-0.2197265625,0.3369140625q-0.556640625,0.3515625-1.2890625,0.3515625l-0.05859375,0q-0.7470703125,0-1.376953125-0.3515625q-0.234375-0.146484375-0.38818359375-0.87158203125t-0.24169921875-1.5966796875t-0.1318359375-1.67724609375t-0.0732421875-1.142578125q-0.5126953125,1.171875-1.39892578125,2.01416015625t-2.23388671875,0.84228515625q-1.0546875,0-1.728515625-0.4541015625t-1.04736328125-1.1572265625t-0.52734375-1.57470703125t-0.15380859375-1.73583984375z M188.6333984375,109.4482421875q0,0.3369140625,0.08056640625,0.99609375t0.25634765625,1.318359375t0.49072265625,1.171875t0.82763671875,0.5126953125q0.6884765625-0.3369140625,1.2451171875-1.12060546875t0.95947265625-1.728515625t0.6298828125-1.8896484375t0.22705078125-1.63330078125q0-0.8642578125-0.6298828125-1.435546875t-1.5087890625-0.5712890625q-0.263671875,0-0.53466796875,0.1025390625t-0.50537109375,0.234375q-0.5419921875,0.5126953125-0.84228515625,0.93017578125t-0.4541015625,0.8642578125t-0.19775390625,0.98876953125t-0.0439453125,1.259765625z"/><path fill="#" d=""/></svg>
